<?xml version="1.0" encoding="UTF-8"?><svg id="Layer_1" xmlns="http://www.w3.org/2000/svg" xmlns:xlink="http://www.w3.org/1999/xlink" viewBox="0 0 512 512"><defs><style>.cls-1{fill:url(#linear-gradient-2);}.cls-2{clip-path:url(#clippath-2);}.cls-3{fill:#0054a6;}.cls-4{fill:#f39500;}.cls-5{clip-path:url(#clippath-1);}.cls-6{fill:#005c32;}.cls-7{fill:#959c98;}.cls-8{clip-path:url(#clippath);}.cls-9{fill:none;}.cls-10{fill:#0054a5;}.cls-11{fill:url(#linear-gradient-3);}.cls-12{fill:url(#linear-gradient);}</style><clipPath id="clippath"><path class="cls-9" d="M403.72,235.61c-6.96,1.26-14.37,1.19-8.52,5.56,5.33,4,12.59,8.74,26.74,13.85,14,5.04,15.7,4.22,14.59,11.11-1.19,7.19-3.56,14.67-2.74,17.85,.59,2.22,1.78,.81,4.07-1.85,7.93-9.19,35.48-50.96,15.7-74,6,7.11-15.41,21.33-49.85,27.48"/></clipPath><linearGradient id="linear-gradient" x1="-4829.74" y1="-2771.08" x2="-4827.36" y2="-2771.08" gradientTransform="translate(166848.51 -209351.39) rotate(-21.7) scale(48.07 -48.07)" gradientUnits="userSpaceOnUse"><stop offset="0" stop-color="#959c98"/><stop offset=".25" stop-color="#959c98"/><stop offset=".35" stop-color="#9ea5a1"/><stop offset=".51" stop-color="#b7bdba"/><stop offset=".71" stop-color="#e0e3e2"/><stop offset=".75" stop-color="#e9eceb"/><stop offset=".9" stop-color="#f5f6f6"/><stop offset="1" stop-color="#fff"/></linearGradient><clipPath id="clippath-1"><path class="cls-9" d="M401.06,165.91c-6.22,2.52-14.07,6.22-25.7,15.7-11.56,9.33-11.7,11.19-17.11,6.67-5.7-4.67-10.96-10.52-14.15-11.41-2.22-.67-1.63,1.11-.52,4.37,4,11.41,26.22,56.22,56.3,51.18-9.19,1.41-10.59-24.07,1.7-56.44,2-5.48,5.04-10.74,2.07-10.74-.59,0-1.41,.22-2.59,.67"/></clipPath><linearGradient id="linear-gradient-2" x1="-4878.42" y1="-2575.06" x2="-4876.03" y2="-2575.06" gradientTransform="translate(85146.92 248741.92) rotate(99) scale(47.61 -47.61)" gradientUnits="userSpaceOnUse"><stop offset="0" stop-color="#00321e"/><stop offset=".12" stop-color="#00582c"/><stop offset=".25" stop-color="#00843d"/><stop offset=".32" stop-color="#0b893c"/><stop offset=".45" stop-color="#299539"/><stop offset=".61" stop-color="#5aa934"/><stop offset=".75" stop-color="#87bc2f"/><stop offset=".78" stop-color="#93c243"/><stop offset=".85" stop-color="#b0d377"/><stop offset=".94" stop-color="#e0eec9"/><stop offset="1" stop-color="#fff"/></linearGradient><clipPath id="clippath-2"><path class="cls-9" d="M406.46,174.36c3.33-8.59,26.37,2.81,48.74,29.33,4.59,5.33,8.22,11.78,9.11,4.59,.89-6.59,1.48-15.19-1.04-29.85-2.52-14.52-4.07-15.56,2.59-18,6.89-2.59,14.67-4.22,17.04-6.52,.37-.37,.59-.74,.59-.96v-.07c-.07-.74-1.7-1.11-4.22-1.56-3.48-.67-10.22-1.41-18.22-1.41-19.56,0-47.11,4.3-54.59,24.44"/></clipPath><linearGradient id="linear-gradient-3" x1="-5022.27" y1="-2715.77" x2="-5019.88" y2="-2715.77" gradientTransform="translate(-268640.4 -48682.11) rotate(-141.3) scale(47.91 -47.91)" gradientUnits="userSpaceOnUse"><stop offset="0" stop-color="#983e17"/><stop offset=".05" stop-color="#a44814"/><stop offset=".14" stop-color="#c2620c"/><stop offset=".25" stop-color="#f18a00"/><stop offset=".36" stop-color="#f39400"/><stop offset=".54" stop-color="#f7ad00"/><stop offset=".75" stop-color="#fdd200"/><stop offset=".79" stop-color="#fdda2e"/><stop offset=".87" stop-color="#feea87"/><stop offset=".93" stop-color="#fff5c8"/><stop offset=".98" stop-color="#fffcf0"/><stop offset="1" stop-color="#fff"/></linearGradient></defs><g><path class="cls-10" d="M28.5,361.63l6.42-28.26h10.54c2.81,0,4.82,.13,6.01,.4,1.86,.41,3.29,1.18,4.3,2.29,1.01,1.12,1.51,2.5,1.51,4.14s-.49,3.05-1.46,4.16c-.97,1.12-2.43,1.97-4.38,2.54,1.52,.39,2.73,1.08,3.65,2.08s1.37,2.17,1.37,3.51c0,1.82-.55,3.48-1.65,4.95s-2.53,2.54-4.3,3.19c-1.77,.65-4.27,.97-7.51,.97h-14.51Zm7.34-4.55h6.1c2.39,0,4.03-.13,4.92-.39,.89-.26,1.63-.73,2.23-1.42s.9-1.46,.9-2.32c0-1.01-.39-1.81-1.18-2.39-.78-.58-2.02-.87-3.71-.87h-7.58l-1.69,7.38Zm2.81-12.3h4.84c2.12,0,3.63-.13,4.56-.39,.92-.26,1.65-.7,2.18-1.33,.53-.63,.79-1.35,.79-2.16,0-.66-.2-1.21-.59-1.67s-.89-.76-1.49-.92c-.6-.15-1.89-.23-3.87-.23h-4.89l-1.53,6.69Z"/><path class="cls-10" d="M65.4,361.63h-6.01l6.42-28.26h6.04l-2.3,10.06c1.43-1.03,2.74-1.74,3.91-2.14,1.18-.4,2.4-.6,3.66-.6,1.76,0,3.17,.46,4.24,1.39,1.07,.93,1.61,2.2,1.61,3.82,0,.81-.2,2.06-.59,3.76l-2.74,11.97h-6.01l2.79-12.2c.29-1.32,.44-2.17,.44-2.54,0-.71-.24-1.26-.72-1.66-.48-.4-1.1-.6-1.87-.6-1.01,0-1.96,.31-2.87,.94-1.25,.86-2.18,1.92-2.79,3.18-.34,.68-.79,2.27-1.36,4.76l-1.85,8.12Z"/><path class="cls-10" d="M94.08,346.95l-5.89-.46c.7-1.89,1.93-3.33,3.66-4.32,1.74-.99,3.94-1.48,6.6-1.48s4.8,.51,6.27,1.52c1.46,1.01,2.19,2.36,2.19,4.03,0,.59-.07,1.21-.21,1.88-.14,.66-.65,2.48-1.54,5.44-.74,2.44-1.11,4.15-1.11,5.12,0,.9,.2,1.88,.6,2.94h-6c-.25-.75-.39-1.53-.45-2.33-.85,.9-1.84,1.59-2.95,2.07-1.11,.48-2.21,.72-3.32,.72-1.74,0-3.2-.54-4.39-1.62-1.18-1.08-1.77-2.52-1.77-4.32,0-2.07,.7-3.66,2.1-4.78,1.38-1.12,3.7-1.79,6.96-2.02,2.87-.22,4.78-.48,5.76-.79,.32-.78,.48-1.41,.48-1.87,0-.62-.28-1.11-.84-1.49-.56-.38-1.33-.57-2.3-.57-2.11,0-3.4,.78-3.86,2.33Zm5.54,5.13c-.37,.09-.84,.17-1.42,.25-2.75,.31-4.56,.72-5.44,1.24-.87,.52-1.31,1.21-1.31,2.08,0,.68,.25,1.23,.74,1.65,.5,.42,1.13,.63,1.89,.63s1.56-.18,2.29-.53c.73-.35,1.32-.85,1.76-1.48s.86-1.67,1.26-3.12l.22-.73Z"/><path class="cls-10" d="M113.65,341.15h5.65l-.9,3.97c2.11-2.96,4.4-4.43,6.89-4.43,.86,0,1.8,.19,2.82,.58l-2.3,4.53c-.55-.18-1.13-.27-1.74-.27-.95,0-1.84,.24-2.67,.71-1.26,.73-2.23,1.69-2.9,2.87-.67,1.18-1.34,3.21-2,6.09l-1.49,6.42h-6.01l4.65-20.47Z"/><path class="cls-10" d="M134.69,346.95l-5.89-.46c.7-1.89,1.93-3.33,3.66-4.32,1.74-.99,3.94-1.48,6.6-1.48s4.8,.51,6.27,1.52c1.46,1.01,2.19,2.36,2.19,4.03,0,.59-.07,1.21-.21,1.88-.14,.66-.65,2.48-1.54,5.44-.74,2.44-1.11,4.15-1.11,5.12,0,.9,.2,1.88,.6,2.94h-6c-.25-.75-.39-1.53-.45-2.33-.85,.9-1.84,1.59-2.95,2.07-1.11,.48-2.21,.72-3.32,.72-1.74,0-3.2-.54-4.39-1.62-1.18-1.08-1.77-2.52-1.77-4.32,0-2.07,.7-3.66,2.1-4.78,1.38-1.12,3.7-1.79,6.96-2.02,2.87-.22,4.78-.48,5.76-.79,.32-.78,.48-1.41,.48-1.87,0-.62-.28-1.11-.84-1.49-.56-.38-1.33-.57-2.3-.57-2.11,0-3.4,.78-3.86,2.33Zm5.54,5.13c-.37,.09-.84,.17-1.42,.25-2.75,.31-4.56,.72-5.44,1.24-.87,.52-1.31,1.21-1.31,2.08,0,.68,.25,1.23,.74,1.65,.5,.42,1.13,.63,1.89,.63s1.56-.18,2.29-.53c.73-.35,1.32-.85,1.76-1.48s.86-1.67,1.26-3.12l.22-.73Z"/><path class="cls-10" d="M151.29,345.26l.98-4.11h3.11l.76-3.28,7.02-3.87-1.72,7.15h3.8l-.92,4.11h-3.86l-2.11,8.55c-.36,1.54-.55,2.43-.55,2.68,0,.46,.16,.8,.49,1.02,.32,.22,.88,.33,1.68,.33,.25,0,.95-.05,2.08-.14l-1,4.11c-1.07,.18-2.14,.27-3.22,.27-2.1,0-3.67-.36-4.71-1.08-1.04-.72-1.56-1.77-1.56-3.16,0-.64,.27-2.09,.82-4.36l2-8.23h-3.08Z"/><path class="cls-10" d="M176.52,361.63l6.43-28.26h6.33l-5.38,23.54h15.71l-1.07,4.72h-22.01Z"/><path class="cls-10" d="M207.25,341.15h6.01l-4.66,20.47h-6.01l4.66-20.47Zm1.77-7.79h6.04l-1.15,5.01h-6.01l1.13-5.01Z"/><path class="cls-10" d="M218.71,341.15h5.7l-.59,2.49c2.25-1.97,4.61-2.95,7.07-2.95,3.29,0,5.2,1.2,5.72,3.61,.81-1.05,1.95-1.92,3.41-2.59s2.94-1.01,4.44-1.01c1.76,0,3.15,.42,4.18,1.26,1.03,.84,1.55,2.02,1.55,3.52,0,.71-.2,1.92-.59,3.64l-2.84,12.5h-6.05l2.84-12.51c.36-1.57,.54-2.45,.54-2.66,0-.59-.2-1.04-.6-1.36-.4-.31-.95-.47-1.64-.47-1.48,0-2.8,.68-3.98,2.04-.94,1.07-1.72,2.94-2.34,5.64l-2.09,9.32h-6.05l2.81-12.38c.32-1.43,.49-2.35,.49-2.76,0-.58-.21-1.03-.64-1.37-.43-.33-.97-.5-1.63-.5-.89,0-1.81,.31-2.75,.93-.95,.62-1.7,1.53-2.26,2.73-.33,.71-.72,2.02-1.18,3.93l-2.16,9.41h-6.01l4.65-20.47Z"/><path class="cls-10" d="M257.4,341.15h6.01l-4.66,20.47h-6.01l4.66-20.47Zm1.77-7.79h6.04l-1.15,5.01h-6.01l1.13-5.01Z"/><path class="cls-10" d="M265.9,345.26l.98-4.11h3.11l.76-3.28,7.02-3.87-1.72,7.15h3.8l-.92,4.11h-3.86l-2.11,8.55c-.36,1.54-.55,2.43-.55,2.68,0,.46,.16,.8,.49,1.02,.32,.22,.88,.33,1.68,.33,.25,0,.95-.05,2.08-.14l-1,4.11c-1.07,.18-2.14,.27-3.22,.27-2.1,0-3.67-.36-4.71-1.08-1.04-.72-1.56-1.77-1.56-3.16,0-.64,.27-2.09,.82-4.36l2-8.23h-3.08Z"/><path class="cls-10" d="M300.67,353.1h-15.12v.52c0,1.38,.43,2.47,1.28,3.3,.85,.82,1.88,1.23,3.07,1.23,1.98,0,3.54-.95,4.68-2.85l5.4,.83c-1.06,1.99-2.47,3.48-4.22,4.47-1.76,.99-3.73,1.48-5.91,1.48-2.9,0-5.31-.85-7.23-2.55-1.92-1.7-2.88-4.01-2.88-6.93,0-3.15,1.09-5.92,3.27-8.32s5.24-3.6,9.16-3.6c2.64,0,4.79,.76,6.44,2.27,1.65,1.51,2.47,3.69,2.47,6.54,0,1.35-.14,2.55-.41,3.6Zm-5.09-3.37l.03-.54c0-1.56-.38-2.71-1.14-3.45-.76-.75-1.74-1.12-2.96-1.12s-2.34,.43-3.34,1.29c-1,.86-1.67,2.13-2.01,3.82h9.42Z"/><path class="cls-10" d="M323.02,361.63h-5.71l.54-2.23c-1.09,.99-2.16,1.69-3.19,2.09-1.03,.4-2.16,.6-3.39,.6-2.22,0-4.03-.71-5.44-2.14-1.41-1.43-2.11-3.57-2.11-6.44,0-3.38,1.02-6.36,3.05-8.94s4.64-3.88,7.81-3.88c2.94,0,5.15,1.09,6.63,3.26l2.53-10.58h6.03l-6.73,28.26Zm-13.44-8.34c0,1.49,.39,2.64,1.17,3.45,.78,.81,1.73,1.21,2.85,1.21,.92,0,1.82-.28,2.69-.84,.87-.56,1.64-1.54,2.29-2.95,.65-1.41,.98-2.87,.98-4.37s-.42-2.76-1.26-3.67c-.84-.9-1.8-1.36-2.89-1.36-.84,0-1.7,.29-2.57,.88-.87,.58-1.64,1.6-2.29,3.06-.65,1.46-.98,2.99-.98,4.59Z"/></g><g><path class="cls-3" d="M67.5,297.61h11.63c15.78,0,19.41-16.15,19.41-23.33,0-11.63-6-14.44-14.15-14.44h-8.89l-8,37.78Zm-12.07-57.56h36.07c14.37,0,32.52,8.89,31.18,34.15-1.33,25.85-17.7,43.33-44.89,43.33H39.06l16.37-77.48Z"/><path class="cls-3" d="M149.65,306.21c7.33,0,10.3-5.33,11.63-13.7-3.48,1.78-7.56,2.15-11.56,2.52-3.63,.3-7.04,2.15-7.04,6.3,0,3.93,3.41,4.89,6.96,4.89m-21.11-28c3.41-14.96,15.11-18.44,29.04-18.44,10.3,0,27.63,1.33,27.63,14.96,0,8.81-6.89,34.07-6.89,37.78,.44,4.3,0,2.37,.89,4.96h-21.26c-.59-1.78-.89-3.56-.74-5.41h-.22c-3.85,4.52-11.19,6.81-17.56,6.81-9.78,0-18.44-4.22-18.44-14.96,0-14.89,11.19-18.89,27.56-20.07,6.15-.44,15.93,.44,15.93-6.52,0-3.93-3.48-4.89-6.81-4.89-4.37,0-7.48,1.56-8.67,5.78h-20.44Z"/><polygon class="cls-3" points="202.54 240.06 224.32 240.06 208.02 317.54 186.32 317.54 202.54 240.06"/><path class="cls-3" d="M228.84,261.17h21.11l-1.56,7.41h.22c4.37-5.33,10.67-8.81,17.93-8.81s13.93,2.37,15.41,9.33c4.67-5.85,11.11-9.33,18.67-9.33,11.11,0,18.22,5.11,18.22,16.74,0,2.59-.89,6.37-1.33,8.89l-6.89,32.15h-21.7l5.78-26.89c.22-1.11,1.33-6.59,1.33-8.22,0-3.56-2.07-5.41-5.63-5.41-4.3,0-7.33,2.37-8.22,6.52l-7.48,34.07h-21.7l6.59-30.15c.3-1.41,.89-3.7,.89-5.19,0-3.63-2-5.19-5.48-5.19-5.41,0-8.15,3.48-9.11,8.37l-7.04,32.22h-21.85l11.85-56.52Z"/><path class="cls-3" d="M354.39,255.1h-21.7l3.19-15.11h21.7l-3.19,15.11Zm-22.96,6.07h21.7l-11.85,56.3h-21.7l11.85-56.3Z"/><path class="cls-3" d="M381.87,306.21c7.33,0,10.3-5.33,11.63-13.7-3.48,1.78-7.56,2.15-11.56,2.52-3.63,.3-7.04,2.15-7.04,6.3,.07,3.93,3.48,4.89,6.96,4.89m-21.04-28c3.41-14.96,15.11-18.44,29.11-18.44,10.3,0,27.63,1.33,27.63,14.96,0,8.81-6.96,34.07-6.96,37.78,.44,4.3,0,2.37,.89,4.96h-21.33c-.52-1.78-.89-3.56-.74-5.41h-.22c-3.85,4.52-11.19,6.81-17.56,6.81-9.78,0-18.44-4.22-18.44-14.96,0-14.89,11.19-18.89,27.56-20.07,6.15-.44,15.93,.44,15.93-6.52,0-3.93-3.48-4.89-6.81-4.89-4.37,0-7.48,1.56-8.67,5.78h-20.37Z"/><path class="cls-7" d="M453.5,207.99c-5.56-5.48-18.74-9.56-28.3-8-1.56,.22-2.37,.67-1.11,2,3.04,3.26,19.26,13.19,3.85,27.41,17.19-5.93,30.96-15.48,25.56-21.41"/><g class="cls-8"><polygon class="cls-12" points="400.83 315.1 500.24 275.54 461.94 179.32 362.54 218.87 400.83 315.1"/></g><path class="cls-6" d="M400.17,232.36c7.56-1.93,17.85-11.04,21.41-19.93,.59-1.48,.59-2.37-1.19-2-4.37,.96-21.33,9.63-25.85-10.74-3.56,17.7-2.3,34.3,5.63,32.67"/><g class="cls-5"><polygon class="cls-1" points="343.43 155.25 330.69 235.69 405.06 247.47 417.8 167.02 343.43 155.25"/></g><path class="cls-4" d="M406.39,174.58c-2,7.48,.89,20.89,6.89,28.3,1.04,1.26,1.78,1.7,2.37-.07,1.33-4.22,2.07-23.11,22.22-16.89-13.78-11.78-28.96-18.96-31.48-11.33"/><g class="cls-2"><polygon class="cls-11" points="515.5 175.54 436.61 112.28 374.46 189.84 453.43 253.02 515.5 175.54"/></g></g></svg>