<?xml version="1.0" encoding="UTF-8"?>
<svg id="Layer_1" data-name="Layer 1" xmlns="http://www.w3.org/2000/svg" viewBox="0 0 512 512">
  <defs>
    <style>
      .cls-1 {
        fill: #ed1c24;
      }

      .cls-1, .cls-2, .cls-3 {
        stroke-width: 0px;
      }

      .cls-2 {
        fill: #f25746;
      }

      .cls-3 {
        fill: #ba151b;
      }
    </style>
  </defs>
  <path class="cls-1" d="m27.68,336.49h21.64v23.26h20.51v-23.26h21.64v68.66h-21.64v-26.52h-20.51v26.52h-21.64v-68.66Zm94.55,0h21.89l23.64,68.66h-21.51l-2.63-9.13h-21.39l-2.5,9.13h-21.01l23.51-68.66h0Zm4,45.15h13.63l-7-24.51-6.63,24.51Zm37.52-45.15h21.89l11.63,45.53,12.01-45.53h21.64l-22.89,68.66h-21.76l-22.51-68.66Zm76.04,0h53.78v16.01h-32.14v9.88h27.02v16.01h-27.02v10.76h33.39v16.01h-55.03v-68.66h0Zm66.16,0h21.64v52.66h29.64v16.01h-51.28v-68.66h0Zm61.04,0h21.64v52.66h29.64v16.01h-51.28v-68.66Zm94.93,19.89c-.5-3.88-3.5-5.88-8.88-5.88-4.25,0-6.5,1.25-6.63,3.75,0,1.5.63,2.75,2.13,3.75,1.5,1,3.5,1.88,6,2.5,2.5.63,4.88,1.25,7.25,1.88,7.75,1.88,13.38,4.5,17.13,7.75,3.63,3.25,5.5,7.75,5.38,13.38,0,5.63-1.38,10.13-4.25,13.63-2.88,3.5-6.63,6-11.26,7.5-4.63,1.5-9.63,2.25-15.01,2.25-8,0-14.88-2.13-20.39-6.38-5.63-4.25-8.5-9.88-8.88-16.63h20.76c.5,2.75,1.75,4.63,3.75,5.75,2,1.13,4.13,1.63,6.38,1.63,5.25-.25,8.13-1.75,8.38-4.63.25-2-.75-3.5-2.88-4.5-2.13-1-5.5-2.13-10.01-3.25-5.63-1.5-10.13-3-13.51-4.5-3.38-1.5-6.13-3.75-8.25-6.75s-3.25-7-3.13-11.88c.13-6.13,2.75-11.13,7.88-15.01,5.13-3.88,12.01-5.75,20.89-5.75,4.75,0,9.01.63,12.88,2,3.88,1.38,7.25,3.63,10.01,7,2.75,3.25,4.5,7.5,5.13,12.76h-20.89v-.38Z"/>
  <path class="cls-2" d="m197.4,160.51c-.63,0-1.25,0-1.75-.13-3.63-.5-6.5-2.75-7.88-6.13-.63-1.63-1-3.25-1-5.13,0-2.63.63-5.25,1.25-7.13,3-10.76,6.5-18.26,10.51-23.01.75-.88,1.63-1.75,2.38-2.38l.25-.13.25-.25c1.5-1.13,3-1.63,4.38-1.63,3.38,0,6.88,3.13,10.01,8.63,3.25,5.75,6.13,14.26,8.25,24.39.75,3.38,1.38,7,1.88,10.63-1.5.13-2.88.25-4.38.25-4.88.38-9.51.75-13.88,1.13-2.13.25-4.38.38-6.5.63h-.5c-1.13.25-2.13.25-3.25.25"/>
  <path class="cls-3" d="m203.28,279.71h0c-1.5,0-3-.63-4.5-1.75h0l-.13-.13-.13-.13-.13-.13-.13-.13c-.75-.63-1.5-1.5-2.25-2.38-4.13-5.13-7.38-13.13-10.01-24.64-.63-2.5-1.13-5.13-1.13-7.75,0-1.88.25-3.75,1-5.5,1.38-3.75,4-6.38,7.63-7.25,1-.25,2-.38,3.13-.38.75,0,1.38,0,2.25.13,2.13.25,4.5.38,6.88.63,4.75.38,9.63.75,14.63,1.13,1.75.13,3.5.25,5.25.38-.75,4.63-1.5,9.01-2.5,13.26-2.38,10.51-5.5,19.26-9.01,25.39-3.63,5.88-7.5,9.26-10.88,9.26"/>
  <path class="cls-1" d="m351.74,197.16c-.13-21.39-7-42.52-19.51-59.53-10.13-13.76-23.14-24.39-38.27-31.14-1.13-.5-5.13-1.5-6.13-1.38-3.75.75-6.38,4.25-7.25,8.76-.25,1.13-.25,2.25-.25,3.5-.13,2.25-.25,4.75-.38,7.38,0,.5,0,1.13-.13,1.88-.13,3-.25,7.5-.63,9.13-2.63,15.13-17.89,24.76-31.14,25.26-9.01.38-17.89.88-26.39,1.38-4.75.38-9.38.75-13.88,1.13-2.13.25-4.38.38-6.5.63h-.5c-1.13.13-2.38.25-3.63.25-.88,0-1.63,0-2.38-.13-5.13-.75-9.13-3.88-11.01-8.63-.88-2.13-1.25-4.25-1.25-6.63,0-3.13.75-6,1.38-8.25,1.13-4.13,2.75-9.26,5-14.13-7.63,7.75-14.01,16.76-18.89,26.77-6.38,13.26-9.88,28.02-10.26,42.77v2c0,25.89,9.63,50.4,26.64,68.79-2.25-5.38-3.75-11.13-4.75-15.51-.63-2.75-1.25-5.63-1.25-8.75,0-2.38.38-4.63,1.13-6.88,1.75-5,5.5-8.5,10.38-9.88,1.25-.38,2.63-.5,4.13-.5.75,0,1.63,0,2.63.13,2.13.25,4.38.38,6.75.63,4.63.38,9.51.75,14.51,1.13,8.75.63,18.01,1.13,27.52,1.38,7.38.25,15.01,3.25,20.89,8.25,6.25,5.25,10.26,12.13,11.26,19.51.25,1.5.38,6,.63,9.26,0,1,.13,1.88.13,2.38.25,3.75.38,7,.63,10.01h0c.13,1.25.25,2.5.25,3.63.88,4.13,3.25,7.38,6.75,8.25,1.13.25,2.38.25,3.63,0,1-.38,1.88-.88,2.88-1.25,14.88-6.88,27.77-17.64,37.65-31.39,12.26-17.13,19.01-38.27,19.01-59.53l.63-.63h0Z"/>
</svg>