<?xml version="1.0" encoding="UTF-8"?><svg id="Layer_1" xmlns="http://www.w3.org/2000/svg" viewBox="0 0 512 512"><defs><style>.cls-1{fill:#2744a0;}.cls-2{fill:#ed1c24;}</style></defs><path id="path34983" class="cls-2" d="M287.44,173.97l-37.33,25.44c80.78,2.33,135.66-23.43,135.66-23.43-58.52,28.46-120.33,31.05-146.28,30.67l-44.47,30.32s139.02-3.46,227.5-88.85c0,0-54.69,40.54-135.08,25.85"/><path id="path34995" class="cls-1" d="M454.67,236.41h-3.64s1.66,2.45-.65,5.84l-30.83,41.91,3.73-39.9c.73-5.11,4.77-7.86,4.77-7.86h-13.14v.02h-33.18l-35.12,47.75,3.7-39.64s.04-.07.05-.11c.69-5.18,4.78-7.97,4.78-7.97h-4.08v-.02h-42.23s0,.02,0,.02c-2.2-.11-108.04-5.02-123.88,23.21,6.5-13.09,10.92-22.64,11.18-23.06h-76.81c.81.24,5.06,2.53,3.61,6.54h0c-4.01,13.67-13.76,45.3-24.64,68.73-14.25,30.7-46.38,41.95-68.44,49.79-2.02.72-1.7,2.2.41,2.21,54.24.36,98.79-3.99,132.48-62.38,7.81-13.54,15.48-28.34,21.5-40.41-.39.9-.71,1.82-.92,2.79-6.93,31.5,51.92,33.52,51.05,41.03-.77,6.63-35.84,4.6-58.98-3.02-.1-.03-.2-.09-.31-.13-4.43-1.47-6.3-4.08-6.3-4.08l.19,1.81s0,0-.02,0c0,0,.03.12.05.28l.93,8.4c.93,8.85,2.16,21.32,2.16,21.32,0,0,122.58,15.49,124.84-24.35,1.71-30.15-57.33-33.78-56.68-40.38.6-6.2,29.34-6.97,46.77-4.39.05.02.09.03.14.03,7.79,1.22,8.91,5.43,8.91,5.43l1.27-2.93s.02,0,.02,0c.03-.14,10.54-24.2,11.45-26.29l-7.91,84.5v.02c-.69,5.18-4.79,7.98-4.79,7.98h8.27l38,.03,35.18-47.83-3.74,39.88c-.72,5.15-4.77,7.92-4.77,7.92h4.03v.02l42.26-.02,68.15-92.66h-28.83"/></svg>