<?xml version="1.0" encoding="UTF-8"?><svg id="Layer_1" xmlns="http://www.w3.org/2000/svg" viewBox="0 0 512 512"><defs><style>.cls-1{fill:#ed1248;}.cls-2{fill:#00abbf;}</style></defs><g id="layer1"><g id="g9271"><g id="g3211"><path id="path3213" class="cls-1" d="M138.53,189.14c-.41,0-.8.01-1.19.04-.04,0-.08,0-.12,0-.06,0-.11,0-.17.01-.03,0-.06,0-.09,0-.06,0-.13.01-.19.02-.07,0-.14.01-.2.02-.03,0-.05,0-.08.01-.05,0-.1.01-.15.01-.04,0-.08.01-.12.01-.04,0-.08.01-.11.02l-.15.02s-.08.01-.12.02c-.05,0-.09.01-.14.03-.06,0-.11.01-.17.03-.03,0-.06.01-.09.01-.06.01-.12.03-.18.04-.02,0-.05.01-.07.02-.04,0-.09.02-.13.03-.04,0-.09.01-.12.02-.04,0-.06.01-.1.03-.04,0-.09.02-.14.03-.05.01-.1.03-.15.04-.03,0-.06.01-.09.02-.04.01-.07.02-.11.04-.04,0-.08.02-.12.04-.02,0-.04.01-.06.02-.06.01-.11.03-.17.04-.03,0-.05.01-.07.03-.06.01-.11.03-.16.04-.03.01-.05.02-.08.03-.05.01-.09.04-.14.05-.04,0-.08.02-.11.04-.04.01-.06.02-.1.04-.04.01-.07.02-.11.04-.04,0-.07.02-.11.04s-.06.03-.09.04c-.04.01-.08.02-.11.04-.04.01-.07.04-.11.04-.04.01-.06.03-.1.04-.04.01-.06.03-.09.04-.04.01-.07.03-.11.04s-.06.04-.1.04c-.04.01-.06.03-.09.04-.03.01-.06.03-.09.04-.04.01-.07.03-.11.04-.03.02-.06.03-.09.04-.04.02-.07.04-.11.05-.04.02-.07.04-.11.06-.02,0-.05.02-.07.04-.04.01-.07.04-.11.05-.02.01-.04.03-.07.04-.04.02-.06.04-.09.05-.03.02-.06.04-.09.05-.03.01-.06.04-.09.05-.03.01-.05.03-.07.04-.04.01-.06.04-.09.05-.03.01-.05.03-.08.04-.02.01-.05.03-.07.04-.03.02-.06.04-.09.05-.02.01-.04.03-.06.04-.04.01-.06.04-.09.05-.02.01-.05.04-.07.05-.03.01-.06.03-.09.05-.03.02-.06.04-.09.06-.01,0-.04.02-.05.03-.03.02-.06.04-.09.06-.01,0-.04.02-.05.04-.03.01-.06.04-.09.06-.01.01-.04.02-.05.03-.03.03-.06.05-.09.07-.01,0-.03.01-.04.03-.04.02-.06.04-.1.07,0,0-.02.01-.03.02-.03.02-.06.04-.09.07-.01,0-.02.01-.04.02-.03.03-.06.05-.09.07,0,0-.02.01-.03.02-.04.03-.07.06-.11.08,0,0,0,0-.01.01-.03.02-.06.04-.09.07-.01,0-.02.01-.02.01-.75.6-1.21,1.1-1.39,1.31-4.26,4.26-13.45,13.61-13.91,14.08-.94.94-1.82,1.39-2.6,1.31-1.03-.1-1.9-1.09-2.16-1.47l-.04-.05-.04-.06-6.74-8.62-.02-.02c-1.31-1.55-3.14-2.46-5.17-2.55-1.79-.07-4.54.65-7.51,3.61-1.92,1.93-18.05,18.22-18.37,18.54-.04.04-.07.08-.11.11-.04.04-.08.08-.11.12-.04.03-.06.06-.1.09-.04.04-.09.09-.14.14l-.05.05c-2.3,2.16-4.33,3.21-5.66,3.72-1.54.58-2.5.58-2.51.58h-30.76l-3.41,3.4h34.12c.29,0,1.6-.02,3.5-.7,2.63-.94,5.2-2.65,7.65-5.1h0c.26-.27,9.41-9.35,11.33-11.26,1.65-1.65,3.31-2.49,4.81-2.42,1.26.05,2.1.75,2.59,1.32.05.06,7.73,9.61,7.8,9.71.29.42,1.29,1.64,3.13,1.87,1.88.23,3.88-.37,5.94-2.42h0s.01-.02.01-.02c.17-.18,16.67-17.28,20.98-21.59l.06-.06s.04-.05.05-.06c0,0,.68-.82,2-1.62,1.75-1.05,3.75-1.58,5.96-1.58h7.29l3.4-3.41h-10.69Z"/></g><g id="g3215"><path id="path3217" class="cls-2" d="M84.73,185.73h40.77l3.41-3.41h-44.12c-.75-.04-5.15-.11-9.22,3.95,0,0-7.41,7.41-7.43,7.44-.08.08-.28.28-.52.59-2.98,3-5.66,5.71-5.72,5.77-.52.41-2.33,2.06-2.68,4.61-.04.29-.06.57-.06.85,0,1.5.55,2.97,1.63,4.38l14.66,19.07c.14.18,3.45,4.38,9.95,4.38h23.1l3.41-3.41h-13.75c-1.99,0-3.82-.51-5.41-1.51-1.21-.76-1.84-1.54-1.85-1.55,0,0-20.37-25.93-20.42-25.98-.63-.85-.95-1.66-.95-2.44,0-.3.05-.6.14-.89.13-.44.34-.8.52-1.04,3.7-3.73,7.76-7.83,7.78-7.84.04-.05.09-.09.14-.13.04-.04.08-.08.12-.12.04-.04.09-.08.13-.11.04-.04.08-.08.12-.11.05-.04.1-.09.14-.13.04-.04.08-.06.11-.1.06-.04.11-.09.17-.14.04-.03.06-.05.09-.08.06-.04.12-.09.18-.14.04-.02.06-.04.09-.06.07-.06.14-.11.22-.16.01-.01.03-.02.04-.04.09-.06.17-.11.25-.17.01,0,.02-.01.03-.02.08-.05.16-.1.24-.14.01-.01.03-.02.04-.03.07-.04.14-.09.22-.13.02,0,.04-.02.06-.03.07-.04.14-.08.22-.12.02,0,.04-.02.06-.04.09-.04.19-.09.28-.13,0,0,0,0,.01,0,.48-.23.98-.42,1.49-.55,1.24-.34,2.11-.28,2.12-.28h-.01.07s.09,0,.09,0ZM60.42,194.26h0v-.11c.47-3.04-.17-5.56-1.85-7.5-2.58-2.97-7.49-4.38-15-4.32-2.03,0-9.4,0-11.66,0l-3.41,3.41c3.23,0,11.99,0,15.06,0h.01c3.37-.03,6.16.27,8.3.86,1.88.52,3.27,1.29,4.13,2.29.78.9,1.16,2.03,1.16,3.43,0,.39-.03.8-.09,1.23-.16.52-.89,2.8-2.29,5.43-1.19,2.26-1.83,4.58-2.29,6.28-.22.84-.42,1.57-.62,2.04-.07.17-.14.36-.22.55-.32.88-.73,1.98-1.77,2.95-1.27,1.2-3.26,1.93-5.88,2.14-.07,0-8.44.01-12.11.01l-3.41,3.41h15.67s.06-.01.06-.01c8.15-.66,9.88-5.33,10.63-7.32.06-.17.11-.32.17-.44.28-.68.5-1.5.76-2.46.44-1.62.98-3.65,2-5.56,1.77-3.32,2.57-6.09,2.6-6.2,0,0,.03-.11.03-.11Z"/></g><g id="g3219"><path id="path3221" class="cls-1" d="M196.34,244.83v31.07c-2.29-2.39-30.34-31.79-30.34-31.79h-1.6v51.07h8.63v-31.08c2.29,2.39,30.34,31.8,30.34,31.8h1.6v-51.07h-8.63Z"/></g><g id="g3223"><path id="path3225" class="cls-1" d="M222.9,286.91v-6.83h20.79v-8.13h-20.79v-18.85h23.46v-8.27h-32.59v50.35h33.6v-8.27h-24.46"/></g><g id="g3227"><path id="path3229" class="cls-1" d="M476.35,280.03l-.42.54c-3.61,4.67-8.09,6.84-14.11,6.84-9.46,0-16.33-7.32-16.33-17.41s6.74-17.41,16.04-17.41c5.94,0,10.04,1.97,13.31,6.4l.42.57,7.06-4.99-.42-.59c-4.62-6.5-11.4-9.79-20.15-9.79-14.64,0-25.68,11.1-25.68,25.82s10.95,25.83,25.47,25.83c9.52,0,16.15-3.17,21.51-10.28l.45-.6-7.15-4.91Z"/></g><g id="g3231"><path id="path3233" class="cls-1" d="M414.2,243.82h-1.38l-22.05,51.36h9.34s2.49-6.05,2.81-6.83h20.9c.32.78,2.8,6.83,2.8,6.83h9.7l-22.13-51.36ZM406.39,280.07h0c.69-1.64,5.99-14.24,7.04-16.77,2.58,6.19,5.86,14.11,6.93,16.77,0,0-13.98,0-13.98,0Z"/></g><g id="g3235"><path id="path3237" class="cls-1" d="M364.68,286.91v-42.08h-9.13v50.35h29.11l3.27-8.27h-23.25"/></g><g id="g3239"><path id="path3241" class="cls-1" d="M325.75,244.43l-1.63,8.28c8.5.98,14.48,7.95,14.48,17.29,0,10.09-6.96,17.41-16.55,17.41s-16.54-7.32-16.54-17.41,6.96-17.41,16.54-17.41c.13,0,.26,0,.38,0l-3.41-8.25c-13.08,1.45-22.93,12.2-22.93,25.66,0,14.48,11.4,25.83,25.96,25.83s25.97-11.1,25.97-25.83c0-13.23-9.52-23.83-22.27-25.57"/></g><g id="g3243"><path id="path3245" class="cls-1" d="M280.98,280.81c6.08-3.14,9.45-8.97,9.45-16.56,0-12.17-8.07-19.42-21.59-19.42h-13.24v50.35h9.14v-11.66h4.1c1.12,0,2.19-.06,3.18-.18.45.65,8.31,11.84,8.31,11.84h10.91s-9.41-13.17-10.27-14.37ZM268.55,275.48h-3.81v-22.38h3.81c8.43,0,12.52,3.64,12.52,11.15s-4.09,11.22-12.52,11.22"/></g><g id="g3247"><path id="path3249" class="cls-1" d="M183.6,206c.47-.6,18.02-22.79,18.02-22.79h-10.13s-16.95,21.56-18.61,23.66v-23.66h-8.83v50.68h8.83v-15.08c.2-.25,4.26-5.22,4.95-6.07.74,1,15.62,21.16,15.62,21.16h10.76s-20.15-27.28-20.6-27.89"/></g><g id="g3251"><path id="path3253" class="cls-1" d="M231.87,182.18h-1.11l-22.21,51.71h9s2.62-6.36,2.85-6.93h21.52c.24.57,2.85,6.93,2.85,6.93h9.36l-22.28-51.71ZM223.75,218.99h0c.52-1.23,6.68-15.92,7.49-17.83,2.75,6.6,6.4,15.39,7.37,17.83h-14.86Z"/></g><g id="g3255"><path id="path3257" class="cls-1" d="M292.24,183.2v31.89c-1.65-1.73-31.12-32.63-31.12-32.63h-1.31v51.42h8.32v-31.89c1.65,1.73,31.12,32.63,31.12,32.63h1.31v-51.42s-8.32,0-8.32,0Z"/></g><g id="g3259"><path id="path3261" class="cls-1" d="M329.03,204.65l-3.44-1.53c-5.63-2.52-7.51-3.95-7.51-7.43,0-3.25,2.23-5.26,5.84-5.26s5.81,1.41,7.67,4.57l.27.45,6.77-4.43-.25-.42c-3.25-5.43-8.02-8.06-14.61-8.06-8.43,0-14.32,5.53-14.32,13.44,0,8.51,6.04,12.35,12.58,15.22l3.44,1.52c4.23,1.91,7.59,3.42,7.59,7.8,0,3.64-3.25,5.99-8.26,5.99s-8.62-2.23-10.79-6.45l-.23-.45-7.49,3.74.24.45c3.65,6.91,10.17,10.72,18.35,10.72,10.45,0,16.94-5.45,16.94-14.24s-6.05-12.65-12.79-15.66"/></g><g id="g3263"><path id="path3265" class="cls-1" d="M368.24,182.18h-1.11l-22.2,51.71h8.99s2.62-6.36,2.85-6.93h21.52c.24.57,2.85,6.93,2.85,6.93h9.36l-22.28-51.71ZM360.12,218.99h0c.52-1.23,6.69-15.92,7.5-17.83,2.75,6.6,6.39,15.39,7.37,17.83h-14.87Z"/></g><g id="g3267"><path id="path3269" class="cls-1" d="M396.4,183.2v50.68h8.83v-50.68h-8.83Z"/></g><g id="g3271"><path id="path3273" class="cls-1" d="M167.25,329.48h-3.67v-23.28h5.96c6.4,0,9.92,3.53,9.92,8.9s-3.56,8.86-9.92,8.86h-2.29v5.51ZM169.41,320.72h0c4.48,0,6.3-2.13,6.3-5.61s-1.85-5.65-6.3-5.65h-2.16v11.26s2.16,0,2.16,0Z"/></g><g id="g3275"><path id="path3277" class="cls-1" d="M185.22,329.48h-3.69l10.2-23.75h.2l10.24,23.75h-3.87l-1.33-3.26h-10.41l-1.34,3.26ZM191.79,313.78h0l-3.87,9.21h7.67s-3.8-9.21-3.8-9.21"/></g><g id="g3279"><path id="path3281" class="cls-1" d="M205.52,306.21h3.67v23.28h-3.67v-23.28Z"/></g><g id="g3283"><path id="path3285" class="cls-1" d="M217.77,314.19v15.3h-3.42v-23.61h.27l14.93,15.64v-15.3h3.42v23.61h-.27l-14.93-15.64Z"/></g><g id="g3287"><path id="path3289" class="cls-1" d="M243.2,309.46h-6.91v-3.25h17.48v3.25h-6.91v20.02h-3.66v-20.02Z"/></g><g id="g3291"><path id="path3293" class="cls-1" d="M258.43,323.36c1.06,2.06,2.87,3.15,5.27,3.15s4.11-1.16,4.11-3.04c0-2.19-1.65-2.95-3.7-3.87l-1.6-.72c-3.43-1.5-5.76-3.28-5.76-6.91s2.64-6.06,6.47-6.06c2.98,0,5.17,1.2,6.63,3.67l-2.77,1.81c-.89-1.5-2.06-2.26-3.8-2.26-1.88,0-2.98,1.09-2.98,2.7,0,1.85,1.13,2.57,3.66,3.69l1.61.72c3.53,1.58,5.86,3.18,5.86,7.12,0,4.28-3.29,6.44-7.7,6.44-3.94,0-6.81-1.92-8.39-4.9l3.08-1.54Z"/></g><g id="g3295"><path id="path3297" class="cls-1" d="M281.53,306.21h3.66v20.02h10.27v3.26h-13.93v-23.28Z"/></g><g id="g3299"><path id="path3301" class="cls-1" d="M299.26,306.21h3.67v23.28h-3.67v-23.28Z"/></g><g id="g3303"><path id="path3305" class="cls-1" d="M310.38,305.73h.21l9.21,14.27,9.21-14.27h.21l2.57,23.75h-3.56l-1.5-14.41-6.91,10.85h-.14l-6.95-10.85-1.51,14.41h-3.38l2.57-23.75Z"/></g><g id="g3307"><path id="path3309" class="cls-1" d="M336.67,306.21h3.67v23.28h-3.67v-23.28Z"/></g><g id="g3311"><path id="path3313" class="cls-1" d="M350.7,309.46h-6.91v-3.25h17.48v3.25h-6.91v20.02h-3.66v-20.02Z"/></g><g id="g3315"><path id="path3317" class="cls-1" d="M364.63,306.21h14.82v3.25h-11.15v9.66h9.89v3.18h-9.89v3.94h11.63v3.26h-15.3s0-23.28,0-23.28Z"/></g><g id="g3319"><path id="path3321" class="cls-1" d="M384.21,306.21h6.58c7.6,0,12.25,4.76,12.25,11.63s-4.63,11.64-12.25,11.64h-6.58s0-23.28,0-23.28ZM390.58,326.23h0c6.02,0,8.66-3.46,8.66-8.39s-2.64-8.39-8.66-8.39h-2.7v16.77s2.7,0,2.7,0Z"/></g></g></g></svg>