<?xml version="1.0" encoding="UTF-8"?>
<svg id="Layer_1" data-name="Layer 1" xmlns="http://www.w3.org/2000/svg" viewBox="0 0 512 512">
  <defs>
    <style>
      .cls-1 {
        fill: #001eaa;
        stroke-width: 0px;
      }
    </style>
  </defs>
  <path class="cls-1" d="m141.77,241.09h17.62l.74,5.79c1.36-4.68,10.23-7.89,15.65-7.89,12.57,0,17.62,7.76,17.62,21.19v29.08h-19.47v-26c0-5.18-.99-9.12-6.16-9.12-4.81,0-7.39,5.17-7.39,8.87v26.24h-18.48v-48.18h-.12Z"/>
  <path class="cls-1" d="m28.05,289.51v-68.38h32.65c19.47,0,28.34,9.49,28.34,23.16,0,14.66-8.13,24.64-28.34,24.64h-10.97v20.45h-21.69v.12Zm30.31-37.09c5.17,0,10.84-1.11,10.84-7.15s-6.04-7.52-10.84-7.52h-8.62v14.66h8.62Z"/>
  <path class="cls-1" d="m356.29,241.09h17.74l.62,5.79c1.6-4.68,10.47-7.89,15.77-7.89,12.32,0,17.62,7.76,17.62,21.19v29.32h-19.47v-26.24c0-5.17-1.11-9.12-6.41-9.12-4.68,0-7.15,5.17-7.15,8.87v26.49h-18.73v-48.42h0Z"/>
  <path class="cls-1" d="m266.84,272.14c0,1.97.99,4.81,2.09,5.79,1.36.99,3.08,1.97,5.17,1.97,3.45,0,6.16-.99,6.16-4.19.25-8.13-29.32-.99-29.32-20.21,0-13.55,10.47-16.63,21.19-16.63s25.63,2.09,25.14,16.76h-16.39c0-1.36-.62-2.34-1.36-3.45-1.11-1.36-2.46-1.97-5.05-2.09-3.33-.25-6.41.37-6.41,2.83.25,7.52,30.56,2.46,30.56,20.21,0,12.32-8.62,17.99-25.51,17.99-10.6-.25-23.9-5.54-23.9-18.85l17.62-.12h0Z"/>
  <path class="cls-1" d="m466.56,259.82c0-1.11,0-2.71-1.6-4.68-.74-.99-2.46-3.08-5.17-3.08-7.39,0-9.24,7.15-9.24,12.94,0,6.78,3.08,12.32,8.87,12.32,5.05,0,7.52-4.68,7.52-8.5h17c.37,9.98-6.53,22.06-25.26,22.06-15.28,0-26-10.6-26-26,0-18.73,13.92-25.87,25.87-25.87,16.26,0,25.51,9.86,25.26,20.82h-17.25Z"/>
  <path class="cls-1" d="m121.07,289.51l-1.97-4.07c-3.7,3.08-7.52,4.81-13.68,4.81-6.04-.25-17.74-.99-17.74-13.92,0-21.19,31.67-11.58,31.67-22.06,0-3.45-3.82-3.33-6.04-3.33-3.82,0-6.41.74-6.9,6.53h-16.26c0-9.98,3.08-18.48,24.27-18.48s22.79,10.84,22.79,21.44v22.06c0,2.96.25,4.19,2.09,6.41v.37l-18.24.25h0Zm-1.6-22.18c-6.53,3.08-14.91,2.96-15.03,7.76,0,3.08,1.73,4.68,5.54,4.68,6.41-.12,9.98-6.65,9.49-12.44h0Zm110.4,22.18l-1.97-4.07c-3.7,3.08-7.76,4.81-13.68,4.81-6.16-.25-17.99-.99-17.99-13.92,0-21.19,31.67-11.58,31.79-22.06,0-3.45-4.07-3.33-6.04-3.33-4.07,0-6.41.74-6.9,6.53h-16.26c0-9.98,2.83-18.48,24.27-18.48s22.55,10.84,22.55,21.44v22.06c0,2.96.25,4.19,2.09,6.41v.37l-17.87.25h0Zm-1.48-22.18c-6.53,3.08-15.03,2.96-15.03,7.76,0,3.08,1.6,4.68,5.54,4.68,6.16-.12,9.86-6.65,9.49-12.44h0Z"/>
  <path class="cls-1" d="m429.48,289.51v-48.42h-17.99v48.42h17.99Zm-17.99-54.71h17.99v-13.92h-17.99v13.92h0Z"/>
  <path class="cls-1" d="m327.46,239.37c16.02,0,25.87,11.21,25.87,25.87s-9.86,25.87-25.87,25.87-26-10.97-26-25.87c-.12-14.79,9.98-25.87,26-25.87h0Zm-8.5,25.75c0,6.04,1.97,13.31,8.5,13.55,6.53,0,8.26-7.52,8.26-13.55s-1.72-13.31-8.26-13.31-8.38,7.52-8.5,13.31h0Z"/>
</svg>