<?xml version="1.0" encoding="UTF-8"?>
<svg id="Layer_1" data-name="Layer 1" xmlns="http://www.w3.org/2000/svg" viewBox="0 0 512 512">
  <defs>
    <style>
      .cls-1 {
        fill: #3c78bb;
        stroke-width: 0px;
      }
    </style>
  </defs>
  <g id="_3c78bbff" data-name="#3c78bbff">
    <path id="path6" class="cls-1" d="m285.32,230.4c3.57-2.29,7.85-3.21,12.05-3.33,4.85-.06,9.82.61,14.22,2.77-.81,2.78-1.64,5.54-2.47,8.31-3.54-1.81-7.52-2.7-11.49-2.68-2.36.06-4.84.56-6.72,2.07-1.74,1.38-2.66,3.75-2.18,5.94.29,1.87,1.65,3.38,3.19,4.39,3.58,2.39,7.84,3.38,11.63,5.34,2.89,1.44,5.65,3.33,7.58,5.96,2.4,3.23,3.09,7.49,2.51,11.42-.5,3.6-2.33,7.01-5.1,9.37-2.62,2.28-5.93,3.65-9.31,4.33-3.94.79-8.01.85-11.97.24-3.44-.51-6.84-1.45-9.92-3.09.65-2.89,1.51-5.73,2.25-8.6,4.14,2.33,8.89,3.54,13.63,3.6,2.81-.05,5.84-.57,7.98-2.54,1.72-1.52,2.42-3.95,2.1-6.19-.21-1.94-1.42-3.63-2.95-4.77-3.16-2.42-7.13-3.31-10.69-4.95-3.73-1.72-7.38-4.08-9.54-7.66-1.86-3.02-2.25-6.75-1.62-10.18.76-4.03,3.37-7.58,6.83-9.74Z"/>
    <path id="path8" class="cls-1" d="m25.66,227.69c18.17-.01,36.33,0,54.5,0,0,5.53,0,11.06,0,16.59-5.22.01-10.43,0-15.64,0,0,13.26,0,26.53,0,39.79-7.57,0-15.14,0-22.7,0,.02-13.26,0-26.52.01-39.78-5.39-.02-10.78,0-16.17-.01,0-5.53.01-11.06,0-16.59Z"/>
    <path id="path10" class="cls-1" d="m95.89,227.67c7.89.04,15.78.01,23.68.01,7.3,18.8,14.61,37.6,21.92,56.4-7.37-.02-14.74-.01-22.11,0-3.87-11.11-7.7-22.23-11.55-33.35-.21.26-.33.56-.43.88-3.68,10.82-7.4,21.64-11.08,32.46-7.28.02-14.56,0-21.84,0,7.1-18.81,14.24-37.61,21.41-56.4Z"/>
    <path id="path12" class="cls-1" d="m136.27,227.67c18.16.04,36.33,0,54.49.02,0,5.53,0,11.06,0,16.59-5.21,0-10.43,0-15.64,0,0,13.26,0,26.53,0,39.79-7.57,0-15.13-.02-22.7.01-.06-13.26,0-26.53-.03-39.8-5.39,0-10.77,0-16.16,0,.02-5.53-.04-11.07.03-16.61Z"/>
    <path id="path14" class="cls-1" d="m206.43,227.67c7.89.02,15.78,0,23.67,0,7.32,18.79,14.63,37.59,21.93,56.4-7.37-.03-14.74,0-22.11-.01-3.87-11.16-7.71-22.32-11.59-33.47-3.87,11.14-7.63,22.32-11.47,33.48-7.28,0-14.56-.02-21.84,0,7.13-18.81,14.25-37.61,21.42-56.4Z"/>
    <path id="path16" class="cls-1" d="m314.84,227.94c14.17,0,28.35.01,42.52,0,.03,2.87,0,5.75.01,8.62-5.4,0-10.79.02-16.19-.01-.05,15.84,0,31.68-.02,47.52-3.43-.01-6.85.01-10.28-.01.02-15.83,0-31.66,0-47.49-5.35,0-10.7,0-16.05,0,0-2.87-.01-5.75,0-8.62Z"/>
    <path id="path18" class="cls-1" d="m363.82,227.92c10.91.05,21.81-.02,32.72.03-.03,2.8-.02,5.6,0,8.4-7.46,0-14.93.02-22.39-.01-.07,4.81,0,9.62-.04,14.43,7.07.05,14.13-.03,21.2.04-.07,2.8.05,5.6-.06,8.4-7.04-.07-14.09-.01-21.13-.03-.01,5.45.01,10.9-.01,16.35,7.89.04,15.78,0,23.67.02.02,2.82-.04,5.64.03,8.47-11.33.11-22.67,0-34,.05-.03-14.92,0-29.83-.01-44.75.02-3.8-.05-7.6.03-11.4Z"/>
    <path id="path20" class="cls-1" d="m408.33,227.99c10.92-.1,21.85-.03,32.77-.04-.02,2.8-.01,5.61,0,8.41-7.46,0-14.93.02-22.39,0-.07,4.81,0,9.62-.04,14.42,7.06.04,14.13,0,21.19.02,0,2.78-.03,5.56.01,8.35-7.06.08-14.13.01-21.2.04,0,5.45,0,10.91,0,16.36,7.89.03,15.78,0,23.67.01.01,2.83-.03,5.65.02,8.48-11.32.09-22.65-.01-33.97.05-.09-18.7.03-37.4-.06-56.09Z"/>
    <path id="path22" class="cls-1" d="m452.95,227.93c3.44.03,6.87,0,10.31.02-.02,15.83,0,31.66,0,47.5,7.69,0,15.39,0,23.09,0,0,2.87,0,5.75,0,8.62-11.13,0-22.25-.02-33.38.01-.05-18.72-.04-37.43,0-56.15Z"/>
  </g>
</svg>